<svg id="svg" version="1.1" width="400" height="275.0769230769231" viewBox="0 0 400 275.0769230769231" xmlns="http://www.w3.org/2000/svg" xmlns:xlink="http://www.w3.org/1999/xlink" ><g id="svgg"><path id="path0" d="M246.893 82.944 C 246.893 88.845,246.929 91.219,246.974 88.221 C 247.018 85.223,247.018 80.395,246.973 77.492 C 246.929 74.589,246.893 77.043,246.893 82.944 M246.892 111.967 C 246.892 117.792,246.929 120.175,246.974 117.263 C 247.018 114.350,247.018 109.584,246.974 106.671 C 246.929 103.759,246.892 106.142,246.892 111.967 M246.893 161.623 C 246.893 167.524,246.929 169.899,246.974 166.901 C 247.018 163.902,247.018 159.074,246.973 156.172 C 246.929 153.269,246.893 155.722,246.893 161.623 M246.893 190.784 C 246.893 196.685,246.929 199.060,246.974 196.062 C 247.018 193.063,247.018 188.235,246.973 185.333 C 246.929 182.430,246.893 184.883,246.893 190.784 M198.281 181.772 C 199.226 181.825,200.774 181.825,201.719 181.772 C 202.665 181.718,201.891 181.674,200.000 181.674 C 198.109 181.674,197.335 181.718,198.281 181.772 M242.503 201.926 L 238.377 202.086 242.418 202.143 C 244.880 202.178,246.526 202.093,246.630 201.926 C 246.723 201.774,246.762 201.677,246.715 201.708 C 246.668 201.740,244.773 201.838,242.503 201.926 " stroke="none" fill="#000000" fill-rule="evenodd"></path><path id="path1" d="M263.480 118.498 C 264.426 118.552,265.973 118.552,266.919 118.498 C 267.865 118.444,267.091 118.400,265.199 118.400 C 263.308 118.400,262.534 118.444,263.480 118.498 M247.693 136.864 C 247.694 138.377,247.740 138.961,247.796 138.161 C 247.852 137.362,247.851 136.124,247.795 135.410 C 247.738 134.697,247.693 135.351,247.693 136.864 M238.239 161.623 L 238.239 172.490 228.190 172.490 L 218.141 172.490 218.218 176.272 L 218.294 180.055 228.267 180.127 L 238.239 180.199 238.239 191.070 L 238.239 201.940 242.435 201.864 L 246.630 201.788 246.702 190.990 L 246.774 180.193 256.812 180.193 L 266.850 180.193 266.850 176.341 L 266.850 172.490 256.809 172.490 L 246.768 172.490 246.768 161.623 L 246.768 150.757 242.503 150.757 L 238.239 150.757 238.239 161.623 M263.343 155.912 C 264.213 155.966,265.636 155.966,266.506 155.912 C 267.376 155.857,266.664 155.812,264.924 155.812 C 263.184 155.812,262.472 155.857,263.343 155.912 " stroke="none" fill="#1c447e" fill-rule="evenodd"></path><path id="path2" d="M238.361 71.889 C 238.295 72.068,238.209 77.105,238.171 83.081 L 238.102 93.948 228.336 93.948 C 222.143 93.948,218.496 94.048,218.367 94.223 C 218.256 94.374,218.163 95.950,218.161 97.725 C 218.156 101.687,216.900 101.282,228.886 101.181 L 238.377 101.100 238.302 111.904 C 238.243 120.457,238.300 122.734,238.577 122.829 C 239.673 123.206,246.218 123.092,246.222 122.696 C 246.225 122.329,246.255 122.329,246.492 122.696 C 246.667 122.966,246.761 119.384,246.763 112.311 C 246.766 104.265,246.686 101.513,246.447 101.513 C 246.270 101.513,246.199 101.439,246.290 101.349 C 246.380 101.259,250.833 101.203,256.185 101.224 C 261.537 101.245,266.114 101.186,266.356 101.094 C 266.727 100.951,266.797 100.361,266.807 97.299 C 266.813 95.304,266.764 93.796,266.697 93.948 C 266.570 94.236,247.227 94.087,246.936 93.796 C 246.853 93.712,246.750 88.698,246.707 82.654 L 246.630 71.664 242.556 71.614 C 239.635 71.578,238.448 71.656,238.361 71.889 M199.113 91.536 C 199.760 91.594,200.751 91.593,201.314 91.534 C 201.877 91.475,201.348 91.428,200.138 91.429 C 198.927 91.430,198.466 91.478,199.113 91.536 M261.348 126.135 L 261.348 133.700 254.625 133.700 L 247.902 133.700 247.816 136.693 C 247.769 138.339,247.770 139.887,247.819 140.132 C 247.898 140.528,248.652 140.578,254.628 140.578 L 261.348 140.578 261.348 148.127 L 261.348 155.677 264.792 155.761 C 266.686 155.808,268.357 155.805,268.506 155.754 C 268.674 155.697,268.776 152.810,268.776 148.120 L 268.776 140.578 275.309 140.574 C 283.213 140.568,282.569 140.891,282.472 136.979 L 282.393 133.838 275.585 133.764 L 268.776 133.691 268.776 126.130 L 268.776 118.569 265.062 118.569 L 261.348 118.569 261.348 126.135 M244.509 122.624 C 243.645 122.678,242.159 122.679,241.207 122.625 C 240.256 122.571,240.963 122.526,242.779 122.526 C 244.594 122.525,245.373 122.569,244.509 122.624 M196.424 189.538 L 196.424 197.249 189.537 197.249 L 182.650 197.249 182.728 200.344 L 182.806 203.439 189.615 203.512 L 196.424 203.586 196.424 211.292 L 196.424 218.998 200.069 218.921 L 203.714 218.845 203.787 211.210 L 203.860 203.576 210.596 203.576 L 217.331 203.576 217.331 200.413 L 217.331 197.249 210.596 197.249 L 203.860 197.249 203.787 189.615 L 203.714 181.981 200.069 181.904 L 196.424 181.827 196.424 189.538 " stroke="none" fill="#5a6591" fill-rule="evenodd"></path><path id="path3" d="M153.232 161.623 L 153.232 172.490 143.183 172.490 L 133.134 172.490 133.211 176.272 L 133.287 180.055 143.260 180.127 L 153.232 180.199 153.232 191.063 L 153.232 201.926 157.497 201.926 L 161.761 201.926 161.761 191.063 L 161.761 180.199 171.733 180.127 L 181.706 180.055 181.706 176.341 L 181.706 172.627 171.733 172.555 L 161.761 172.483 161.761 161.620 L 161.761 150.757 157.497 150.757 L 153.232 150.757 153.232 161.623 " stroke="none" fill="#c92035" fill-rule="evenodd"></path><path id="path4" d="M197.524 63.539 L 197.524 70.977 190.794 70.977 C 183.029 70.977,183.494 70.797,183.494 73.795 C 183.494 76.638,183.136 76.511,190.857 76.420 L 197.525 76.341 197.524 83.906 L 197.524 91.472 200.069 91.411 C 201.468 91.378,202.703 91.347,202.812 91.342 C 202.921 91.338,202.983 87.961,202.950 83.838 L 202.889 76.341 209.068 76.425 C 217.183 76.535,216.545 76.775,216.448 73.651 L 216.369 71.114 209.702 71.041 L 203.035 70.967 202.962 63.613 L 202.889 56.259 200.206 56.180 L 197.524 56.101 197.524 63.539 M223.572 94.016 C 226.173 94.061,230.506 94.061,233.201 94.016 C 235.896 93.971,233.769 93.934,228.473 93.934 C 223.177 93.934,220.972 93.971,223.572 94.016 M250.619 94.006 C 259.332 94.200,266.575 94.204,266.575 94.017 C 266.575 93.903,262.211 93.837,256.878 93.870 C 251.544 93.903,248.728 93.964,250.619 94.006 M131.142 119.844 C 131.036 119.950,130.949 123.233,130.949 127.139 L 130.949 134.241 124.278 134.314 L 117.607 134.388 117.528 137.070 L 117.449 139.752 124.195 139.752 L 130.940 139.752 131.013 147.111 L 131.087 154.470 133.769 154.549 L 136.451 154.628 136.451 147.190 L 136.451 139.752 142.469 139.752 C 145.779 139.752,148.874 139.675,149.347 139.580 L 150.206 139.409 150.206 136.996 C 150.206 133.998,150.812 134.226,142.939 134.261 L 136.589 134.290 136.451 127.049 L 136.314 119.807 133.824 119.729 C 132.455 119.686,131.248 119.738,131.142 119.844 M241.207 122.625 C 242.159 122.679,243.645 122.678,244.509 122.624 C 245.373 122.569,244.594 122.525,242.779 122.526 C 240.963 122.526,240.256 122.571,241.207 122.625 M238.481 123.048 C 238.600 123.167,240.296 123.228,242.251 123.185 L 245.805 123.106 242.035 122.970 C 239.961 122.895,238.362 122.930,238.481 123.048 " stroke="none" fill="#339999" fill-rule="evenodd"></path><path id="path5" d="M181.842 176.148 L 181.978 179.780 182.057 176.364 C 182.101 174.485,182.039 172.850,181.921 172.731 C 181.802 172.613,181.767 174.150,181.842 176.148 M155.515 202.130 C 156.694 202.182,158.551 202.182,159.641 202.130 C 160.731 202.078,159.766 202.035,157.497 202.036 C 155.227 202.036,154.335 202.079,155.515 202.130 " stroke="none" fill="#ff0000" fill-rule="evenodd"></path><path id="path6" d="M153.508 82.661 L 153.508 93.810 143.329 93.810 L 133.150 93.810 133.150 97.387 L 133.150 100.963 143.329 100.963 L 153.508 100.963 153.508 112.112 L 153.508 123.261 157.428 123.185 L 161.348 123.109 161.420 112.039 L 161.492 100.970 171.736 100.897 L 181.981 100.825 181.981 97.387 L 181.981 93.948 171.736 93.876 L 161.492 93.803 161.420 82.734 L 161.348 71.664 157.428 71.588 L 153.508 71.512 153.508 82.661 M195.323 120.220 L 195.323 132.600 183.900 132.600 L 172.476 132.600 172.552 137.208 L 172.627 141.816 183.972 141.888 L 195.318 141.959 195.389 154.267 L 195.461 166.575 200.069 166.650 L 204.677 166.726 204.677 154.340 L 204.677 141.953 215.927 141.953 C 225.931 141.953,227.195 141.905,227.343 141.518 C 227.435 141.279,227.510 139.174,227.510 136.841 L 227.510 132.600 216.094 132.600 L 204.677 132.600 204.677 120.220 L 204.677 107.840 200.000 107.840 L 195.323 107.840 195.323 120.220 " stroke="none" fill="#e9762d" fill-rule="evenodd"></path></g></svg>